<?xml version="1.0" standalone="no"?><!DOCTYPE svg PUBLIC "-//W3C//DTD SVG 1.1//EN" "http://www.w3.org/Graphics/SVG/1.1/DTD/svg11.dtd"><svg t="1775114068371" class="icon" viewBox="0 0 1024 1024" version="1.1" xmlns="http://www.w3.org/2000/svg" p-id="26199" xmlns:xlink="http://www.w3.org/1999/xlink" width="256" height="256"><path d="M950.165 316.346c40.184 40.184 43.674 103.55 8.025 145.11l-5.36 5.784-22.806 22.806c-21.514 21.51-52.71 29.613-82.242 22.251l-7.342-2.163c-28.165-9.608-66.733 6.695-116.544 56.506-34.354 34.354-43.206 66.064-29.578 101.404l3.263 7.631c32.703 69.767 21.849 150.419-27.438 205.58l-6.958 7.361-41.017 41.017c-13.227 13.227-33.987 14.329-48.47 3.307l-3.783-3.307L420.62 780.339c-14.429-14.43-14.429-37.824 0-52.253 13.227-13.227 33.987-14.33 48.47-3.307l3.783 3.307L596.07 851.225l14.862-14.862c30.755-30.756 39.812-77.786 23.368-120.784l-3.63-8.54c-31.846-67.94-16.95-134.73 40.973-192.652 67.59-67.59 132.089-94.854 192.656-74.193 4.238 1.446 8.333 1.026 11.39-0.788l2.085-1.615 22.804-22.804c10.68-10.68 11.186-28.83 0.783-42.45l-3.45-3.938-252.169-252.17c-12.593-12.592-30.917-14.201-42.971-5.563l-3.417 2.898-22.802 22.802c-3.104 3.104-4.212 8.178-2.406 13.475 20.663 60.567-6.6 125.066-74.192 192.658C444.79 397.863 381.583 414 317 387.903l-9.697-4.232c-42.37-19.861-90.127-13.968-122.962 13.878l-6.362 5.86-14.861 14.862 160.462 160.52c11.515 11.515 14 29.01 6.691 43.11l-2.8 4.56-153.492 213.753 87.695-63.106c16.556-11.93 39.648-8.18 51.578 8.376 11.93 16.555 8.18 39.647-8.376 51.577l-118.172 85.153c-26.679 19.225-63.392 15.433-86.7-7.875-21.755-21.755-26.508-55.186-11.448-81.192l3.531-5.452 157.062-218.887-164.44-164.382C71.481 431.2 70.38 410.44 81.402 395.957l3.306-3.784 41.017-41.016c52.77-52.77 132.682-67.34 203.363-38.587l9.578 4.19c38.455 18.025 72.228 10.493 109.035-26.314 46.699-46.699 63.946-83.516 58.002-111.145l-1.496-5.403c-9.952-29.178-4.27-60.964 14.994-84.012l5.098-5.573 22.802-22.802c39.382-39.382 102.71-39.51 145-2.825l5.894 5.49 252.17 252.17z" fill="#ffffff" p-id="26200"></path></svg>