<?xml version="1.0" standalone="no"?><!DOCTYPE svg PUBLIC "-//W3C//DTD SVG 1.1//EN" "http://www.w3.org/Graphics/SVG/1.1/DTD/svg11.dtd"><svg t="1775112845376" class="icon" viewBox="0 0 1024 1024" version="1.1" xmlns="http://www.w3.org/2000/svg" p-id="25487" xmlns:xlink="http://www.w3.org/1999/xlink" width="256" height="256"><path d="M690.298 0.3c56.813 0 104.072 42.325 108.25 96.904l0.3 7.877v32.244c-0.002 30.414-16.326 58.192-42.407 73.865l-6.719 3.66c-26.701 13.118-42.44 51.907-42.44 122.33 0 48.568 16.158 77.241 50.774 92.59l7.7 3.087c72.436 26.2 121.775 90.885 125.928 164.72l0.284 10.122v57.989c0 18.7-13.896 34.155-31.925 36.6l-5.012 0.338H643.96c-20.4 0-36.938-16.538-36.938-36.938 0-18.7 13.896-34.154 31.925-36.6l5.012-0.337 174.134-0.041V607.7c0-43.484-26.844-83.13-68.862-101.902l-8.604-3.471C670.09 476.813 633.406 419.07 633.406 337.18c0-95.559 26.323-160.425 83.741-188.634 4.02-1.974 6.616-5.166 7.495-8.61l0.332-2.614v-32.24c0-15.1-12.472-28.29-29.454-30.561l-5.222-0.346H333.784c-17.805 0-31.896 11.816-34.31 26.443l-0.367 4.463v32.238c0 4.388 2.804 8.76 7.825 11.226 57.42 28.208 83.742 93.075 83.742 188.635 0 77.99-33.271 134.08-97.375 161.284l-9.847 3.863c-43.99 15.912-73.582 53.837-77.11 96.732l-0.354 8.64v21.01l226.9 0.04c16.28 0 30.404 10.612 35.204 25.745l1.245 5.204L511.934 919.3l17.383-106.6c3.27-20.137 22.244-33.81 42.38-30.54 20.136 3.27 33.81 22.244 30.539 42.381l-23.34 143.729c-5.27 32.449-33.903 55.721-66.856 55.721-30.756 0-57.749-20.273-65.486-49.301l-1.358-6.35-43.704-265.756-232.442 0.04c-18.7 0-34.154-13.896-36.599-31.925l-0.338-5.012v-57.989c0-74.604 46.19-141.394 116.48-171.033l9.732-3.81c39.925-14.44 58.475-43.64 58.475-95.676 0-66.023-13.834-104.24-37.566-119.568l-4.879-2.763c-27.66-13.59-46.11-40.078-48.786-69.987l-0.337-7.543V105.08c0-55.678 44.677-100.533 100.504-104.496L333.784 0.3h356.512z" fill="#ffffff" p-id="25488"></path></svg>