<?xml version="1.0" standalone="no"?><!DOCTYPE svg PUBLIC "-//W3C//DTD SVG 1.1//EN" "http://www.w3.org/Graphics/SVG/1.1/DTD/svg11.dtd"><svg t="1777474375109" class="icon" viewBox="0 0 1024 1024" version="1.1" xmlns="http://www.w3.org/2000/svg" p-id="5652" xmlns:xlink="http://www.w3.org/1999/xlink" width="256" height="256"><path d="M768 128a170.666667 170.666667 0 0 1 170.666667 170.666667v426.666666a170.666667 170.666667 0 0 1-170.666667 170.666667H256a170.666667 170.666667 0 0 1-170.666667-170.666667V298.666667a170.666667 170.666667 0 0 1 170.666667-170.666667h512z m0 85.333333H256a85.333333 85.333333 0 0 0-85.12 78.933334L170.666667 298.666667v426.666666a85.333333 85.333333 0 0 0 78.933333 85.12L256 810.666667h512a85.333333 85.333333 0 0 0 85.12-78.933334L853.333333 725.333333V298.666667a85.333333 85.333333 0 0 0-78.933333-85.12L768 213.333333zM298.666667 341.333333a42.666667 42.666667 0 0 1 42.666666 42.666667v256a42.666667 42.666667 0 0 1-85.333333 0V384a42.666667 42.666667 0 0 1 42.666667-42.666667z" fill="#ffffff" p-id="5653"></path></svg>