<?xml version="1.0" standalone="no"?><!DOCTYPE svg PUBLIC "-//W3C//DTD SVG 1.1//EN" "http://www.w3.org/Graphics/SVG/1.1/DTD/svg11.dtd"><svg t="1777474692416" class="icon" viewBox="0 0 1024 1024" version="1.1" xmlns="http://www.w3.org/2000/svg" p-id="8437" xmlns:xlink="http://www.w3.org/1999/xlink" width="256" height="256"><path d="M110.421333 167.125333a85.333333 85.333333 0 0 0-0.853333 50.389334l170.496 587.733333a102.4 102.4 0 0 0 189.653333 17.834667l118.485334-233.386667a42.666667 42.666667 0 0 1 22.4-20.394667l189.696-74.709333a102.4 102.4 0 0 0-5.589334-192.597333L218.112 112.682667a85.333333 85.333333 0 0 0-105.386667 48.213333l-2.304 6.229333z m251.605334 614.4L191.488 193.706667 768.085333 383.146667a17.066667 17.066667 0 0 1 0.938667 32.085333l-189.738667 74.752a128 128 0 0 0-67.2 61.141333l-118.485333 233.386667a17.066667 17.066667 0 0 1-31.573333-2.986667z" fill="#ffffff" p-id="8438"></path></svg>