<?xml version="1.0" standalone="no"?><!DOCTYPE svg PUBLIC "-//W3C//DTD SVG 1.1//EN" "http://www.w3.org/Graphics/SVG/1.1/DTD/svg11.dtd"><svg t="1777474432550" class="icon" viewBox="0 0 1024 1024" version="1.1" xmlns="http://www.w3.org/2000/svg" p-id="5873" xmlns:xlink="http://www.w3.org/1999/xlink" width="256" height="256"><path d="M512 938.666667C276.352 938.666667 85.333333 747.648 85.333333 512S276.352 85.333333 512 85.333333s426.666667 191.018667 426.666667 426.666667-191.018667 426.666667-426.666667 426.666667z m0-85.333334a341.333333 341.333333 0 1 0 0-682.666666 341.333333 341.333333 0 0 0 0 682.666666z m-72.576-200.704l-120.832-120.832a42.666667 42.666667 0 1 1 60.330667-60.330666l90.538666 90.538666 190.08-187.989333a42.922667 42.922667 0 0 1 60.544 0.170667 42.453333 42.453333 0 0 1-0.128 60.202666L499.626667 652.8a42.666667 42.666667 0 0 1-60.202667-0.128z" fill="#ffffff" p-id="5874"></path></svg>