<?xml version="1.0" standalone="no"?><!DOCTYPE svg PUBLIC "-//W3C//DTD SVG 1.1//EN" "http://www.w3.org/Graphics/SVG/1.1/DTD/svg11.dtd"><svg t="1777474517112" class="icon" viewBox="0 0 1024 1024" version="1.1" xmlns="http://www.w3.org/2000/svg" p-id="6315" xmlns:xlink="http://www.w3.org/1999/xlink" width="256" height="256"><path d="M738.133333 103.893333a106.666667 106.666667 0 0 1 127.189334 17.792l36.992 36.992a106.666667 106.666667 0 0 1 17.792 127.232l-57.258667 103.082667a128 128 0 0 1-86.784 63.36l-28.970667 5.76-39.509333 41.344a106.496 106.496 0 0 1-24.576 19.157333l196.693333 196.693334a116.309333 116.309333 0 0 1 14.933334 146.176l-4.565334 6.4-3.285333 4.010666-3.541333 4.053334-3.541334 3.797333a116.266667 116.266667 0 0 1-164.437333 0l-360.832-360.789333-9.642667 1.92a215.125333 215.125333 0 0 1-167.936-42.368l-7.893333-6.442667A215.04 215.04 0 0 1 106.24 236.757333a76.629333 76.629333 0 0 1 74.752-51.072l1.749333 0.128-0.170666-2.474666A76.672 76.672 0 0 1 227.882667 110.933333l5.76-2.304c84.224-30.037333 180.693333-7.125333 238.506666 60.330667a214.912 214.912 0 0 1 51.328 153.856l0.341334-0.384 41.6-43.52 6.229333-30.976a128 128 0 0 1 55.936-82.346667l7.424-4.437333zM413.866667 218.88c-37.248-43.434667-100.522667-57.173333-154.453334-37.973333L347.733333 269.312c15.36 14.890667 21.589333 36.906667 16.170667 57.6-5.461333 20.736-18.56 34.645333-39.253333 40.064a59.221333 59.221333 0 0 1-57.6-16.170667l-88.32-88.32a138.24 138.24 0 0 0 195.882666 167.978667l395.008 394.965333a39.466667 39.466667 0 0 0 55.850667 0l3.541333-4.053333a39.466667 39.466667 0 0 0-3.541333-51.797333L567.466667 511.616l-5.589334-4.266667-5.76-5.162666-30.592-30.549334a107.392 107.392 0 0 1-11.093333-13.013333l-83.968-83.968a138.154667 138.154667 0 0 0-16.597333-155.733333z m391.125333-36.864a21.333333 21.333333 0 0 0-25.429333-3.584l-103.125334 57.301333a42.666667 42.666667 0 0 0-21.12 28.928l-8.618666 43.178667a42.666667 42.666667 0 0 1-11.008 21.077333l-50.176 52.48a21.333333 21.333333 0 0 0 0.341333 29.866667l29.568 29.525333 3.328 2.730667a21.333333 21.333333 0 0 0 27.178667-3.072l48.768-51.029333a42.666667 42.666667 0 0 1 22.442666-12.373334l42.154667-8.405333a42.666667 42.666667 0 0 0 28.928-21.12l57.301333-103.125333a21.333333 21.333333 0 0 0-3.584-25.429334z" fill="#ffffff" p-id="6316"></path><path d="M123.52 719.573333l-3.84 4.053334-3.328 3.712-3.370667 3.968a127.914667 127.914667 0 0 0 190.890667 169.770666l197.248-192.853333a106.752 106.752 0 0 0 0.298667-151.210667l-30.037334-30.08a106.666667 106.666667 0 0 0-150.016-0.853333l-197.845333 193.493333z m287.530667-132.266666l30.037333 30.037333a21.333333 21.333333 0 0 1 2.474667 27.221333l-2.645334 3.114667-197.504 193.152a42.581333 42.581333 0 0 1-63.573333-56.533333l3.370667-3.712L381.013333 587.093333a21.333333 21.333333 0 0 1 29.994667 0.170667z" fill="#ffffff" p-id="6317"></path></svg>