<?xml version="1.0" standalone="no"?><!DOCTYPE svg PUBLIC "-//W3C//DTD SVG 1.1//EN" "http://www.w3.org/Graphics/SVG/1.1/DTD/svg11.dtd"><svg t="1777474652872" class="icon" viewBox="0 0 1024 1024" version="1.1" xmlns="http://www.w3.org/2000/svg" p-id="8212" xmlns:xlink="http://www.w3.org/1999/xlink" width="256" height="256"><path d="M768 128a170.666667 170.666667 0 0 1 170.666667 170.666667v426.666666a170.666667 170.666667 0 0 1-170.666667 170.666667H256a170.666667 170.666667 0 0 1-170.666667-170.666667V298.666667a170.666667 170.666667 0 0 1 170.666667-170.666667h512z m0 85.333333H256a85.333333 85.333333 0 0 0-85.12 78.933334L170.666667 298.666667v426.666666a85.333333 85.333333 0 0 0 78.933333 85.12L256 810.666667h512a85.333333 85.333333 0 0 0 85.12-78.933334L853.333333 725.333333V298.666667a85.333333 85.333333 0 0 0-78.933333-85.12L768 213.333333z m-256 426.666667a42.666667 42.666667 0 0 1 0 85.333333h-42.666667a42.666667 42.666667 0 0 1 0-85.333333h42.666667z m0-170.666667a42.666667 42.666667 0 0 1 0 85.333334h-42.666667a42.666667 42.666667 0 0 1 0-85.333334h42.666667z m0-170.666666a42.666667 42.666667 0 0 1 0 85.333333h-42.666667a42.666667 42.666667 0 0 1 0-85.333333h42.666667z" fill="#ffffff" p-id="8213"></path></svg>